{
  "accessors": [
    {
      "bufferView": 2,
      "componentType": 5126,
      "count": 3057,
      "max": [
        1.4849663972854614,
        1.0476813316345215,
        1.9276078939437866
      ],
      "min": [
        -1.5249664783477783,
        -0.5521968603134155,
        0.7123921513557434
      ],
      "type": "VEC3"
    },
    {
      "bufferView": 2,
      "byteOffset": 36684,
      "componentType": 5126,
      "count": 3057,
      "max": [
        0.998894214630127,
        0.9992884993553162,
        0.9998614192008972
      ],
      "min": [
        -0.9997414350509644,
        -0.9994118213653564,
        -0.9998627305030823
      ],
      "type": "VEC3"
    },
    {
      "bufferView": 1,
      "componentType": 5126,
      "count": 3057,
      "max": [
        0.9717299938201904,
        0.9900000095367432
      ],
      "min": [
        0.009999999776482582,
        0.009999990463256836
      ],
      "type": "VEC2"
    },
    {
      "bufferView": 0,
      "componentType": 5125,
      "count": 16590,
      "type": "SCALAR"
    },
    {
      "bufferView": 2,
      "byteOffset": 73368,
      "componentType": 5126,
      "count": 4119,
      "max": [
        -0.82435542345047,
        1.549803614616394,
        0.007860985584557056
      ],
      "min": [
        -2.215644598007202,
        -0.4985690712928772,
        -1.8878610134124756
      ],
      "type": "VEC3"
    },
    {
      "bufferView": 2,
      "byteOffset": 122796,
      "componentType": 5126,
      "count": 4119,
      "max": [
        0.9999402761459351,
        0.9994741082191467,
        0.9999595284461975
      ],
      "min": [
        -0.9999234080314636,
        -0.9999514222145081,
        -0.9993483424186707
      ],
      "type": "VEC3"
    },
    {
      "bufferView": 1,
      "byteOffset": 24456,
      "componentType": 5126,
      "count": 4119,
      "max": [
        0.9900000095367432,
        0.9900000095367432
      ],
      "min": [
        0.009999999776482582,
        0.010063886642456055
      ],
      "type": "VEC2"
    },
    {
      "bufferView": 0,
      "byteOffset": 66360,
      "componentType": 5125,
      "count": 21582,
      "type": "SCALAR"
    },
    {
      "bufferView": 2,
      "byteOffset": 172224,
      "componentType": 5126,
      "count": 5637,
      "max": [
        2.1500163078308105,
        0.980466902256012,
        0.09474107623100281
      ],
      "min": [
        0.5517591238021851,
        -0.3104986846446991,
        -1.863710880279541
      ],
      "type": "VEC3"
    },
    {
      "bufferView": 2,
      "byteOffset": 239868,
      "componentType": 5126,
      "count": 5637,
      "max": [
        0.9999839067459106,
        0.9999901056289673,
        0.99983811378479
      ],
      "min": [
        -0.9999209046363831,
        -0.9999167323112488,
        -0.9983880519866943
      ],
      "type": "VEC3"
    },
    {
      "bufferView": 1,
      "byteOffset": 57408,
      "componentType": 5126,
      "count": 5637,
      "max": [
        0.9814572930335999,
        0.9900000095367432
      ],
      "min": [
        0.009999999776482582,
        0.009999990463256836
      ],
      "type": "VEC2"
    },
    {
      "bufferView": 0,
      "byteOffset": 152688,
      "componentType": 5125,
      "count": 31152,
      "type": "SCALAR"
    }
  ],
  "asset": {
    "extras": {
      "author": "Design Factory (https://sketchfab.com/SrColmillo)",
      "license": "CC-BY-NC-4.0 (http://creativecommons.org/licenses/by-nc/4.0/)",
      "source": "https://sketchfab.com/3d-models/nubes-ta-1aaa78ac705b448083b3c66e0d1f1fbc",
      "title": "Nubes Ta"
    },
    "generator": "Sketchfab-12.66.0",
    "version": "2.0"
  },
  "bufferViews": [
    {
      "buffer": 0,
      "byteLength": 277296,
      "name": "floatBufferViews",
      "target": 34963
    },
    {
      "buffer": 0,
      "byteLength": 102504,
      "byteOffset": 277296,
      "byteStride": 8,
      "name": "floatBufferViews",
      "target": 34962
    },
    {
      "buffer": 0,
      "byteLength": 307512,
      "byteOffset": 379800,
      "byteStride": 12,
      "name": "floatBufferViews",
      "target": 34962
    }
  ],
  "buffers": [
    {
      "byteLength": 687312,
      "uri": "scene.bin"
    }
  ],
  "images": [
    {
      "uri": "textures/nube1_baseColor.jpeg"
    },
    {
      "uri": "textures/nube2_baseColor.jpeg"
    },
    {
      "uri": "textures/nube3_baseColor.jpeg"
    }
  ],
  "materials": [
    {
      "alphaMode": "BLEND",
      "doubleSided": true,
      "name": "nube1",
      "pbrMetallicRoughness": {
        "baseColorFactor": [
          1.0,
          1.0,
          1.0,
          0.8
        ],
        "baseColorTexture": {
          "index": 0
        },
        "metallicFactor": 0.0
      }
    },
    {
      "alphaMode": "BLEND",
      "doubleSided": true,
      "name": "nube2",
      "pbrMetallicRoughness": {
        "baseColorFactor": [
          1.0,
          1.0,
          1.0,
          0.8
        ],
        "baseColorTexture": {
          "index": 1
        },
        "metallicFactor": 0.0
      }
    },
    {
      "alphaMode": "BLEND",
      "doubleSided": true,
      "name": "nube3",
      "pbrMetallicRoughness": {
        "baseColorFactor": [
          1.0,
          1.0,
          1.0,
          0.8
        ],
        "baseColorTexture": {
          "index": 2
        },
        "metallicFactor": 0.0
      }
    }
  ],
  "meshes": [
    {
      "name": "Object_0",
      "primitives": [
        {
          "attributes": {
            "NORMAL": 1,
            "POSITION": 0,
            "TEXCOORD_0": 2
          },
          "indices": 3,
          "material": 0,
          "mode": 4
        }
      ]
    },
    {
      "name": "Object_1",
      "primitives": [
        {
          "attributes": {
            "NORMAL": 5,
            "POSITION": 4,
            "TEXCOORD_0": 6
          },
          "indices": 7,
          "material": 1,
          "mode": 4
        }
      ]
    },
    {
      "name": "Object_2",
      "primitives": [
        {
          "attributes": {
            "NORMAL": 9,
            "POSITION": 8,
            "TEXCOORD_0": 10
          },
          "indices": 11,
          "material": 2,
          "mode": 4
        }
      ]
    }
  ],
  "nodes": [
    {
      "children": [
        1
      ],
      "matrix": [
        1.0,
        0.0,
        0.0,
        0.0,
        0.0,
        2.220446049250313e-16,
        -1.0,
        0.0,
        0.0,
        1.0,
        2.220446049250313e-16,
        0.0,
        0.0,
        0.0,
        0.0,
        1.0
      ],
      "name": "Sketchfab_model"
    },
    {
      "children": [
        2
      ],
      "name": "root"
    },
    {
      "children": [
        3,
        5,
        7
      ],
      "matrix": [
        1.0,
        0.0,
        0.0,
        0.0,
        0.0,
        2.220446049250313e-16,
        1.0,
        0.0,
        0.0,
        -1.0,
        2.220446049250313e-16,
        0.0,
        0.0,
        0.0,
        0.0,
        1.0
      ],
      "name": "GLTF_SceneRootNode"
    },
    {
      "children": [
        4
      ],
      "name": "nube1_0"
    },
    {
      "mesh": 0,
      "name": "Object_4"
    },
    {
      "children": [
        6
      ],
      "name": "nube2_1"
    },
    {
      "mesh": 1,
      "name": "Object_6"
    },
    {
      "children": [
        8
      ],
      "name": "nube3_2"
    },
    {
      "mesh": 2,
      "name": "Object_8"
    }
  ],
  "samplers": [
    {
      "magFilter": 9729,
      "minFilter": 9987,
      "wrapS": 10497,
      "wrapT": 10497
    }
  ],
  "scene": 0,
  "scenes": [
    {
      "name": "Sketchfab_Scene",
      "nodes": [
        0
      ]
    }
  ],
  "textures": [
    {
      "sampler": 0,
      "source": 0
    },
    {
      "sampler": 0,
      "source": 1
    },
    {
      "sampler": 0,
      "source": 2
    }
  ]
}
